<svg width="105" height="61" viewBox="0 0 105 61" fill="none" xmlns="http://www.w3.org/2000/svg">
<g clip-path="url(#clip0_101_2)">
<rect width="105" height="61" fill="white"/>
<path d="M7.27594 27.4881C7.35391 24.764 7.65528 22.5392 8.18004 20.8137C8.70417 19.0725 9.34177 17.8194 10.0928 17.0544C10.8595 16.2887 11.6694 16.0138 12.5226 16.2298C13.3907 16.4296 14.1921 17.1089 14.9268 18.2679C15.1924 19.0392 15.376 19.9075 15.4774 20.873C15.5944 21.8378 15.6184 22.822 15.5494 23.8256C15.4953 24.8129 15.3547 25.7881 15.1276 26.7511C14.9162 27.7134 14.5995 28.5862 14.1775 29.3694C13.7556 30.1525 13.243 30.822 12.6399 31.3779C12.0361 31.9181 11.3305 32.2592 10.5231 32.401C9.94543 32.4242 9.45421 32.264 9.04945 31.9206C8.64468 31.5772 8.31483 31.1525 8.0599 30.6467C7.80434 30.1253 7.6106 29.5857 7.47868 29.0281C7.36175 28.4542 7.29417 27.9408 7.27594 27.4881ZM8.51147 27.2978C8.52719 27.6881 8.55914 28.0934 8.60734 28.5137C8.67115 28.9333 8.78054 29.3199 8.93551 29.6733C9.08985 30.0112 9.31225 30.2916 9.6027 30.5145C9.90814 30.7212 10.3028 30.8148 10.7868 30.7954C11.3333 30.7735 11.8228 30.5037 12.2555 29.9859C12.6881 29.4682 13.0523 28.8046 13.3481 27.9952C13.6439 27.1859 13.866 26.2934 14.0144 25.318C14.1784 24.3418 14.2575 23.3926 14.2516 22.4702C14.2607 21.5316 14.1793 20.6748 14.0074 19.8998C13.851 19.1242 13.6011 18.5478 13.2575 18.1707C12.9133 17.7779 12.4696 17.6315 11.9263 17.7315C11.3986 17.8308 10.7758 18.2858 10.0578 19.0965C9.86498 19.7453 9.67312 20.4176 9.48221 21.1133C9.29066 21.7934 9.12317 22.4882 8.97972 23.1976C8.83564 23.8915 8.71498 24.5843 8.61773 25.2763C8.52049 25.9682 8.48507 26.6421 8.51147 27.2978ZM17.4173 31.1863C17.3062 29.2048 17.199 27.5124 17.0956 26.1092C17.0072 24.6897 16.9279 23.4966 16.8577 22.5299C16.7875 21.5632 16.7176 20.7998 16.6482 20.2396C16.5937 19.6632 16.5517 19.2036 16.5223 18.8607C16.4928 18.5179 16.4675 18.2765 16.4462 18.1366C16.4243 17.9811 16.4105 17.8331 16.4049 17.6926C16.3942 17.4272 16.4657 17.2602 16.6193 17.1915C16.7723 17.1071 16.9658 17.0603 17.2 17.0509C17.4654 17.0402 17.6706 17.0868 17.8155 17.1904C17.9754 17.2778 18.0638 17.5323 18.0808 17.9538L19.033 30.5352C19.0487 30.5345 19.1261 30.5158 19.2653 30.4789C19.4046 30.4421 19.5666 30.3887 19.7515 30.3187C19.9363 30.2487 20.129 30.1785 20.3294 30.1079C20.5292 30.0217 20.6903 29.9449 20.8127 29.8774C20.9969 29.7918 21.2729 29.6557 21.6407 29.4689C22.0085 29.2821 22.4222 29.0701 22.8817 28.8327C23.3413 28.5954 23.824 28.3493 24.3298 28.0944C24.8505 27.8234 25.341 27.577 25.8012 27.3552C26.2764 27.1172 26.6901 26.9052 27.0423 26.719C27.4094 26.5167 27.6851 26.3727 27.8693 26.2871L28.1503 26.2759C28.244 26.2721 28.338 26.2762 28.4323 26.288C28.5266 26.2999 28.6062 26.3358 28.6712 26.3957C28.7362 26.4557 28.779 26.5478 28.7996 26.672C28.8059 26.8282 28.78 26.9621 28.722 27.0739C28.6795 27.1851 28.6143 27.3128 28.5263 27.4571C27.612 27.6657 26.7191 28.0143 25.8474 28.5027C24.9914 28.9905 24.1359 29.494 23.2811 30.013C22.4419 30.5314 21.5849 30.9958 20.7101 31.4062C19.8509 31.8159 18.9607 32.0393 18.0395 32.0762C17.6492 32.0918 17.4418 31.7952 17.4173 31.1863ZM30.8485 30.9528C30.7976 29.6882 30.7554 28.4467 30.722 27.2283C30.6886 26.0099 30.632 24.8003 30.5524 23.5994C30.4728 22.3985 30.3619 21.1988 30.2198 20.0004C30.0771 18.7864 29.887 17.5587 29.6493 16.3172C29.6481 16.286 29.6221 16.2245 29.5715 16.1327C29.5365 16.0402 29.5015 15.9478 29.4665 15.8554C29.4309 15.7474 29.3959 15.6549 29.3616 15.5781C29.3272 15.5013 29.3094 15.4473 29.3081 15.4161C29.305 15.338 29.3246 15.2434 29.3671 15.1322C29.4251 15.0205 29.4913 14.9162 29.5656 14.8193C29.6548 14.7063 29.7529 14.6164 29.8596 14.5495C29.9664 14.4827 30.0748 14.4549 30.1847 14.4661C30.3739 14.5055 30.5269 14.6166 30.6438 14.7996C30.7762 14.9819 30.8784 15.1889 30.9503 15.4206C31.0215 15.6367 31.0693 15.8537 31.0938 16.0716C31.1338 16.289 31.1557 16.4445 31.1594 16.5381C31.6178 16.2696 32.1301 15.9832 32.6964 15.679C33.2778 15.3586 33.8682 15.0691 34.4676 14.8105C35.0821 14.5356 35.6906 14.3079 36.2932 14.1274C36.9108 13.9306 37.4928 13.8213 38.0392 13.7994C38.0449 13.9399 38.0187 14.066 37.9606 14.1778C37.9182 14.289 37.8205 14.3867 37.6675 14.4711L31.2198 18.0369L31.2566 18.9502C31.2791 19.1213 31.3066 19.4174 31.3392 19.8383C31.3874 20.2585 31.4369 20.7101 31.4876 21.1928C31.5377 21.6599 31.5793 22.1117 31.6125 22.5482C31.6607 22.9685 31.6958 23.2564 31.7177 23.4119L36.4335 20.5254L36.5449 20.3802C36.6192 20.2834 36.7172 20.1934 36.839 20.1103C36.9608 20.0273 37.0841 19.9832 37.209 19.9782C37.3489 19.957 37.4847 20.0297 37.6165 20.1965C37.6278 20.4775 37.4983 20.7563 37.228 21.033C36.9577 21.3097 36.6171 21.5892 36.2062 21.8715C35.7954 22.1538 35.3452 22.4299 34.8556 22.6997C34.3817 22.9689 33.9387 23.229 33.5266 23.4801C33.1145 23.7312 32.7726 23.9795 32.501 24.2249C32.2294 24.4704 32.0977 24.6946 32.1059 24.8975L32.2879 29.4173C32.494 29.4872 32.7737 29.4448 33.1272 29.2898C33.4956 29.1187 33.9008 28.8913 34.3429 28.6078C34.785 28.3242 35.2411 28.001 35.7112 27.6381C36.1808 27.2596 36.6356 26.9052 37.0758 26.5748C37.5316 26.2438 37.9497 25.9455 38.3299 25.6801C38.7258 25.414 39.0555 25.2522 39.319 25.1948C39.4751 25.1885 39.6169 25.2141 39.7443 25.2715C39.8717 25.329 39.9392 25.4514 39.9467 25.6387C39.9543 25.8261 39.851 25.9788 39.6368 26.0968C39.1036 26.4466 38.4879 26.8857 37.7899 27.4141C37.1068 27.9262 36.4084 28.4468 35.6947 28.9758C34.9804 29.4892 34.2724 29.9633 33.5705 30.398C32.8837 30.8165 32.2852 31.0985 31.775 31.244C31.572 31.2522 31.4075 31.2431 31.2813 31.2169C31.1552 31.1907 31.0109 31.1026 30.8485 30.9528ZM43.3577 29.9587C43.3826 29.8013 43.5718 29.6452 43.9252 29.4902C44.2786 29.3353 44.7176 29.1692 45.2422 28.9918C45.7667 28.8144 46.3453 28.6192 46.9778 28.4062C47.6104 28.1931 48.2186 27.9576 48.8024 27.6997C49.3863 27.4417 49.9142 27.1547 50.3863 26.8387C50.8739 26.522 51.227 26.1638 51.4455 25.7641C51.436 25.5299 51.2727 25.3567 50.9554 25.2443C50.6537 25.1313 50.2437 25.0461 49.7254 24.9887C49.222 24.915 48.6415 24.8679 47.9839 24.8474C47.3413 24.8106 46.6746 24.7591 45.9839 24.693C45.3082 24.6106 44.6396 24.5123 43.9782 24.3981C43.3318 24.2676 42.7457 24.08 42.2198 23.8353C41.7089 23.5743 41.2888 23.2393 40.9596 22.8303C40.646 22.4206 40.4769 21.9114 40.4524 21.3025C40.4279 20.6936 40.5364 20.0872 40.7779 19.4833C41.0188 18.8638 41.3465 18.2642 41.761 17.6847C42.1912 17.1045 42.6775 16.5611 43.2201 16.0546C43.7782 15.5474 44.3624 15.1018 44.9724 14.7177C45.5824 14.3336 46.1878 14.0278 46.7885 13.8004C47.4049 13.5725 47.9784 13.4478 48.5092 13.4265C48.6498 13.4209 48.7981 13.4149 48.9542 13.4087C49.1097 13.3868 49.2427 13.3893 49.3533 13.4161C49.4788 13.4268 49.5825 13.4773 49.6643 13.5679C49.7461 13.6584 49.7908 13.7974 49.7984 13.9847C49.8166 14.4375 49.6815 14.7713 49.393 14.9861C49.1039 15.1854 48.7486 15.2934 48.3271 15.3103L47.3873 14.6912C47.0283 14.7056 46.6342 14.8231 46.2052 15.0436C45.7919 15.2634 45.3657 15.5542 44.9268 15.9158C44.5029 16.2612 44.0889 16.6609 43.685 17.1149C43.281 17.569 42.9246 18.0368 42.6156 18.5183C42.3222 18.9992 42.0834 19.4779 41.8993 19.9544C41.7308 20.4303 41.6541 20.8555 41.6692 21.2302C41.6912 21.7767 41.8575 22.2157 42.1679 22.5473C42.4934 22.8626 42.91 23.1117 43.4177 23.2947C43.9405 23.4614 44.5316 23.5784 45.1911 23.6458C45.8506 23.7132 46.5173 23.7646 47.1911 23.8002C47.865 23.8357 48.531 23.8715 49.1893 23.9077C49.8469 23.9282 50.4283 23.9988 50.9336 24.1192C51.4544 24.2391 51.8679 24.4102 52.174 24.6325C52.4956 24.8541 52.6647 25.1679 52.681 25.5738C52.8628 25.8168 52.8354 26.1071 52.5988 26.445C52.3772 26.7667 52.0154 27.1017 51.5134 27.4503C51.0263 27.7825 50.4381 28.1267 49.7488 28.4827C49.0744 28.8225 48.3757 29.1398 47.6526 29.4346C46.9288 29.7139 46.2273 29.9609 45.5479 30.1758C44.8678 30.3751 44.2868 30.5078 43.8047 30.5741C43.6641 30.5797 43.5374 30.5379 43.4243 30.4486C43.3269 30.3587 43.3046 30.1954 43.3577 29.9587ZM45.9106 12.9678C45.4853 12.891 45.2445 12.7364 45.1882 12.5041C45.1475 12.2712 45.2227 12.0024 45.4138 11.6976C45.6041 11.3772 45.872 11.0381 46.2172 10.6802C46.5619 10.3067 46.9071 9.94886 47.253 9.6066C47.5184 9.59596 47.7008 9.65902 47.8001 9.79577C47.8994 9.93253 47.9529 10.0946 47.9604 10.2819L47.967 10.4459C47.9433 10.6345 47.8578 10.8412 47.7105 11.066C47.5632 11.2908 47.3846 11.5169 47.1749 11.7443C46.9651 11.9716 46.7394 12.1918 46.4978 12.4047C46.2717 12.6171 46.076 12.8048 45.9106 12.9678ZM53.6884 16.2213L53.6431 15.0972C53.8305 15.0897 54.0437 15.1437 54.283 15.2592C54.5222 15.3747 54.7545 15.514 54.98 15.6769C55.2055 15.8399 55.4163 16.0269 55.6125 16.238C55.808 16.4334 55.9632 16.5992 56.0782 16.7353L63.361 25.7555C63.3972 25.4882 63.4164 24.9949 63.4187 24.2755C63.4366 23.5554 63.4196 22.7429 63.3675 21.8381C63.3304 20.9169 63.2683 19.9577 63.1813 18.9604C63.1098 17.9625 63.0178 17.0357 62.9051 16.1802C62.8075 15.3084 62.6999 14.5777 62.5823 13.9882C62.4797 13.3825 62.3557 13.0199 62.2101 12.9007C62.2007 12.6665 62.2309 12.4464 62.3008 12.2403C62.3863 12.0336 62.554 11.9252 62.8038 11.9152C63.0536 11.9052 63.2622 12.0375 63.4296 12.3123C63.5971 12.5871 63.727 12.9024 63.8196 13.2584C63.9115 13.5987 63.9799 13.94 64.025 14.2822C64.085 14.6082 64.1172 14.8258 64.1216 14.9351C64.1486 15.2155 64.1815 15.6442 64.2203 16.2213C64.2586 16.7827 64.3003 17.43 64.3454 18.1631C64.39 18.8807 64.4364 19.645 64.4847 20.4563C64.5486 21.2668 64.6028 22.0309 64.6473 22.7484C64.7075 23.4654 64.7495 24.1205 64.7734 24.7137C64.8122 25.2908 64.8451 25.7195 64.8721 25.9999C64.8802 26.2028 64.919 26.3889 64.9884 26.5582C65.0734 26.7268 65.1505 26.8957 65.2199 27.0649C65.3049 27.2335 65.382 27.4024 65.4514 27.5717C65.5208 27.7409 65.5592 27.9192 65.5668 28.1065C65.5793 28.4188 65.4717 28.6577 65.2438 28.8232C65.0308 28.9725 64.7839 29.0527 64.5029 29.064C64.3467 29.0703 64.2056 29.0603 64.0794 29.0341C63.9683 28.9916 63.8718 28.9251 63.7899 28.8346C63.7231 28.7278 63.6787 28.5966 63.6568 28.4411C63.6505 28.285 63.6736 28.0808 63.726 27.8285C63.546 27.6324 63.2674 27.3152 62.8901 26.8768C62.5122 26.4229 62.0855 25.9239 61.6101 25.38C61.1497 24.8199 60.6571 24.2376 60.1324 23.6332C59.6077 23.0287 59.1076 22.4545 58.6322 21.9106C58.1562 21.3511 57.7295 20.8522 57.3522 20.4138L56.5154 19.4387C56.4823 19.3932 56.4251 19.3329 56.3439 19.258L55.7593 18.7185C55.6781 18.6435 55.6134 18.5914 55.5653 18.562C55.5393 19.4701 55.5839 20.3831 55.699 21.3011C55.8136 22.2035 55.9515 23.1049 56.1129 24.0054C56.2898 24.9053 56.459 25.8055 56.6204 26.706C56.7967 27.5903 56.9031 28.4852 56.9396 29.3907C56.9496 29.6405 56.9353 29.8678 56.8966 30.0726C56.8574 30.2619 56.676 30.4177 56.3525 30.5401C56.0359 30.4434 55.8169 30.2488 55.6957 29.9566C55.5738 29.6487 55.5697 29.3518 55.6833 29.0657L53.6884 16.2213ZM67.0297 12.5902C67.0246 12.4653 67.0602 12.3778 67.1364 12.3279C67.2275 12.2617 67.3278 12.2264 67.4371 12.222C67.5613 12.2014 67.6862 12.1964 67.8117 12.207C67.9529 12.2169 68.0703 12.2201 68.164 12.2163C68.2496 12.4005 68.3271 12.7727 68.3966 13.3329C68.481 13.8768 68.5627 14.546 68.6416 15.3403C68.7355 16.1184 68.8094 16.9833 68.8634 17.9351C68.9329 18.8862 68.9953 19.8532 69.0505 20.8361C69.1207 21.8029 69.1747 22.7546 69.2124 23.6913C69.2657 24.6274 69.3081 25.4858 69.3395 26.2664C69.3859 27.0308 69.4202 27.6862 69.4422 28.2326L69.4846 29.2865C69.4815 29.5994 69.4188 29.7895 69.2964 29.857C69.189 29.9082 68.9221 29.8798 68.4955 29.7718C68.448 29.7581 68.3996 29.5254 68.3501 29.0739C68.3007 28.6224 68.2534 28.0301 68.2082 27.297C68.1624 26.5482 68.1125 25.6979 68.0586 24.7462C68.004 23.7789 67.9485 22.7881 67.892 21.7739C67.8355 20.7598 67.7713 19.7459 67.6992 18.7323C67.6427 17.7182 67.5822 16.798 67.5177 15.9718C67.4525 15.13 67.3767 14.4137 67.2904 13.8229C67.219 13.2159 67.1321 12.805 67.0297 12.5902ZM70.6096 25.7698C70.5895 25.2702 70.609 24.5892 70.6681 23.7268C70.7428 22.8637 70.8619 21.9363 71.0252 20.9446C71.2042 19.9523 71.4297 18.9503 71.7017 17.9385C71.9731 16.9112 72.3032 15.9832 72.6921 15.1545C73.0966 14.3251 73.5616 13.6418 74.0873 13.1047C74.6286 12.567 75.2349 12.2847 75.9063 12.2577C76.2966 12.2421 76.6273 12.2992 76.8984 12.4291C77.185 12.5583 77.4193 12.7444 77.6011 12.9873C77.7978 13.214 77.9416 13.4819 78.0322 13.791C78.1378 14.0839 78.1978 14.4099 78.2123 14.7689C77.9313 14.7802 77.7021 14.719 77.5247 14.5854C77.3466 14.4362 77.1839 14.2785 77.0365 14.1124C76.8891 13.9463 76.7345 13.7961 76.5727 13.6619C76.4259 13.5114 76.2276 13.4411 75.9778 13.4511C75.4782 13.4712 75.0274 13.7316 74.6253 14.2325C74.2226 14.7178 73.8643 15.3342 73.5504 16.0818C73.2365 16.8293 72.965 17.6612 72.7361 18.5773C72.5065 19.4779 72.3153 20.3612 72.1625 21.2274C72.0247 22.0774 71.9232 22.8555 71.8578 23.5618C71.7918 24.2525 71.7657 24.7696 71.7795 25.1131C71.7977 25.5658 71.839 26.0098 71.9035 26.4451C71.9673 26.8648 72.0842 27.2432 72.2541 27.5804C72.4241 27.9176 72.6618 28.1896 72.9672 28.3962C73.272 28.5873 73.6976 28.6719 74.2441 28.65C74.8686 28.6249 75.4771 28.3973 76.0696 27.9669C76.6778 27.536 77.2357 27.021 77.7432 26.4221C78.2502 25.8075 78.6856 25.1646 79.0495 24.4932C79.4128 23.8062 79.6702 23.2095 79.8219 22.703C79.8524 22.6862 79.9224 22.6755 80.0317 22.6711C80.1403 22.6512 80.2103 22.6405 80.2415 22.6393C80.4289 22.6318 80.6015 22.6483 80.7595 22.6889C80.9325 22.7132 81.0241 22.8503 81.0341 23.1001C80.9606 23.6034 80.7634 24.143 80.4425 24.7188C80.121 25.279 79.7368 25.8339 79.2898 26.3835C78.8428 26.9331 78.3474 27.4456 77.8036 27.9209C77.2598 28.3962 76.7287 28.8006 76.2105 29.1341C75.6922 29.4676 75.2089 29.6981 74.7605 29.8256C74.3128 29.9686 73.9456 29.9755 73.6589 29.8463C73.1437 29.8669 72.6931 29.7442 72.3071 29.4782C71.9361 29.196 71.625 28.8488 71.3738 28.4367C71.1383 28.0239 70.9561 27.5777 70.8273 27.0981C70.6986 26.6185 70.626 26.1758 70.6096 25.7698ZM82.4633 28.8834C82.5013 28.663 82.529 28.3804 82.5464 28.0356C82.5638 27.6909 82.5846 27.2366 82.6088 26.6727C82.6486 26.1081 82.6831 25.4109 82.7122 24.5809C82.757 23.7503 82.8179 22.7393 82.8951 21.5477C82.9722 20.3562 83.0567 18.961 83.1488 17.3623C83.2557 15.7474 83.3992 13.8729 83.5791 11.739C83.5885 11.5823 83.6549 11.4858 83.7786 11.4495C83.9178 11.4127 84.0421 11.3921 84.1514 11.3877C84.3231 11.3808 84.4662 11.4376 84.5805 11.5581C84.6948 11.6786 84.7941 11.8154 84.8785 11.9684C84.9784 12.1208 85.0709 12.2812 85.1559 12.4499C85.2409 12.6185 85.3324 12.7555 85.4305 12.8611C85.601 13.2139 85.7738 13.6214 85.9488 14.0835C86.1394 14.5449 86.3391 15.0373 86.5478 15.5607C86.7565 16.084 86.9655 16.6151 87.1749 17.154C87.3836 17.6773 87.592 18.1928 87.8001 18.7005C88.0076 19.1926 88.1982 19.6541 88.3719 20.085C88.5606 20.4996 88.7309 20.8446 88.8827 21.12C89.0538 21.0975 89.2933 21.0254 89.6011 20.9036C89.9083 20.7661 90.2393 20.6356 90.594 20.5119C90.9487 20.3882 91.2965 20.2883 91.6375 20.2121C91.9784 20.1358 92.2672 20.1243 92.5039 20.1773C92.74 20.2148 92.8937 20.3415 92.9649 20.5576C93.0518 20.773 93.011 21.1187 92.8425 21.5946C92.7332 21.599 92.6311 21.5874 92.5362 21.5599C92.4406 21.5169 92.3454 21.4816 92.2504 21.4541C92.1549 21.411 92.0518 21.3761 91.9413 21.3492C91.8457 21.3062 91.7355 21.2871 91.6106 21.2921C91.5325 21.2953 91.3549 21.3493 91.0776 21.4542C90.8153 21.5429 90.5303 21.6482 90.2224 21.77C89.9139 21.8762 89.6448 21.9886 89.415 22.1073C89.1846 22.2104 89.0703 22.2853 89.0722 22.3321L90.9436 28.6138L90.3706 29.5281C90.0869 29.086 89.8398 28.5798 89.6292 28.0097C89.4336 27.4233 89.2461 26.8444 89.0667 26.273C88.8867 25.686 88.7008 25.1462 88.5089 24.6534C88.332 24.1445 88.1118 23.7233 87.8482 23.3898C87.5266 23.5591 87.1416 23.7075 86.6933 23.8349C86.2449 23.9623 85.8134 24.1204 85.3988 24.309C84.9835 24.482 84.6254 24.7153 84.3245 25.0089C84.0386 25.2862 83.8738 25.6603 83.8302 26.1311C83.8065 26.3197 83.7853 26.5708 83.7667 26.8843C83.7637 27.1972 83.7522 27.4947 83.7323 27.777C83.6993 28.1223 83.6744 28.4752 83.6576 28.8355L82.4633 28.8834ZM84.601 14.9819L84.5702 15.3819C84.5653 15.648 84.5545 15.9611 84.5377 16.3215C84.5203 16.6662 84.4957 17.0268 84.464 17.4034C84.4472 17.7638 84.436 18.0691 84.4305 18.3196C84.3876 19.197 84.3366 20.0669 84.2775 20.9293C84.2334 21.7755 84.2293 22.6436 84.2651 23.5335C84.5617 23.5216 84.8724 23.4701 85.1971 23.3788C85.5375 23.287 85.8612 23.1724 86.1685 23.035C86.4751 22.8819 86.7495 22.7067 86.9917 22.5094C87.249 22.2958 87.4428 22.0613 87.5733 21.8058C87.4264 21.2644 87.2632 20.708 87.0839 20.1366C86.9195 19.549 86.7394 18.962 86.5438 18.3756C86.3476 17.7736 86.1363 17.1878 85.9101 16.6183C85.6839 16.0488 85.4427 15.4955 85.1865 14.9585C85.1703 14.9435 85.1144 14.9144 85.0188 14.8713C84.9226 14.8127 84.7834 14.8495 84.601 14.9819Z" fill="black"/>
<path d="M8.9211 53.2481C9.27684 52.5977 9.61913 51.9347 9.94797 51.2592C10.2894 50.5702 10.5852 49.8827 10.8355 49.1968C11.0984 48.4974 11.3025 47.7935 11.4479 47.085C11.5927 46.3636 11.6589 45.6253 11.6463 44.87C11.5016 44.445 11.3472 44.118 11.183 43.889C11.0315 43.6466 10.8137 43.5628 10.5296 43.6375C10.2451 43.6993 9.86241 43.9402 9.38159 44.3603C8.90077 44.7804 8.25178 45.4277 7.43462 46.3022C7.31485 46.2281 7.19486 46.1474 7.07465 46.0603C6.96701 45.9597 6.91098 45.8443 6.90656 45.7142C6.90612 45.7012 6.90546 45.6817 6.90457 45.6557C6.91626 45.6162 6.92188 45.5899 6.92144 45.5769C7.15942 45.2953 7.42861 44.9735 7.729 44.6116C8.04241 44.2492 8.38251 43.9055 8.7493 43.5804C9.11609 43.2554 9.49788 42.9884 9.89467 42.7796C10.304 42.5573 10.743 42.4382 11.2114 42.4224C11.674 42.6152 12.0108 42.9426 12.2219 43.4044C12.4326 43.8533 12.5483 44.3836 12.569 44.9952C12.6024 45.5934 12.5591 46.2397 12.4394 46.9343C12.3192 47.6158 12.147 48.2991 11.9227 48.9841C11.7114 49.6688 11.4665 50.3219 11.188 50.9437C10.9224 51.565 10.6603 52.095 10.4016 52.5336L15.5793 50.7757C15.5924 50.7753 15.6249 50.7742 15.6769 50.7724C15.7416 50.7572 15.7934 50.7489 15.8324 50.7476C15.8975 50.7454 15.9758 50.7493 16.0673 50.7592C16.1589 50.7692 16.2376 50.786 16.3036 50.8099C16.3825 50.8332 16.4489 50.8701 16.5027 50.9204C16.5696 50.9702 16.6043 51.0342 16.607 51.1123C16.1486 51.4274 15.6105 51.6931 14.9925 51.9095C14.3875 52.1253 13.7562 52.3356 13.0987 52.5402C12.4538 52.7314 11.8219 52.9221 11.203 53.1124C10.5841 53.3027 10.0313 53.5233 9.54477 53.7742C9.3756 53.7799 9.23179 53.7653 9.11334 53.7302C8.99445 53.6821 8.93037 53.5214 8.9211 53.2481ZM19.9614 42.8497C20.5245 42.9349 20.9554 43.1549 21.2541 43.5096C21.5523 43.8512 21.7684 44.2674 21.9023 44.7579C22.0357 45.2354 22.1248 45.7471 22.1693 46.2927C22.2269 46.838 22.2895 47.3375 22.357 47.7912C22.3645 48.0124 22.3617 48.3121 22.3484 48.6904C22.3478 49.0552 22.3287 49.4532 22.2912 49.8844C22.2533 50.3026 22.1898 50.7347 22.1007 51.1807C22.0112 51.6136 21.875 52.0156 21.6922 52.3865C21.5219 52.7441 21.2974 53.0383 21.0186 53.2692C20.7528 53.4996 20.4248 53.6215 20.0344 53.6347C19.8036 53.7467 19.5609 53.6963 19.3061 53.4834C19.0644 53.2701 18.8319 52.9457 18.6087 52.5103C18.3854 52.0749 18.1789 51.5542 17.9889 50.9483C17.812 50.342 17.6797 49.7081 17.5922 49.0466C17.5041 48.3721 17.4684 47.7023 17.4849 47.0373C17.5144 46.3719 17.6173 45.7561 17.7935 45.1899C17.9692 44.6107 18.2325 44.1133 18.5832 43.6975C18.9338 43.2818 19.3933 42.9992 19.9614 42.8497ZM18.2848 46.424C18.3321 47.8165 18.4228 48.9534 18.5569 49.8347C18.7041 50.7157 18.8702 51.3876 19.0553 51.8503C19.2404 52.3131 19.439 52.5995 19.6512 52.7096C19.876 52.8062 20.09 52.7794 20.2934 52.6293C20.5097 52.4786 20.7161 52.2241 20.9124 51.8657C21.1082 51.4943 21.2632 51.0722 21.3775 50.5993C21.5047 50.126 21.592 49.6279 21.6394 49.1052C21.6864 48.5695 21.6757 48.0617 21.6073 47.582C21.5945 47.2046 21.555 46.8086 21.4888 46.3939C21.4356 45.9788 21.3508 45.5908 21.2343 45.23C21.1304 44.8557 20.9825 44.5284 20.7906 44.2483C20.5983 43.9551 20.3632 43.7481 20.0855 43.6272C19.8513 43.6351 19.6204 43.7407 19.3928 43.9438C19.1781 44.1465 18.9844 44.3875 18.8115 44.667C18.6516 44.9459 18.5182 45.2371 18.4112 45.5403C18.3042 45.8436 18.2543 46.0994 18.2613 46.3076L18.264 46.3856C18.2644 46.3987 18.2714 46.4115 18.2848 46.424ZM25.3375 52.6933C25.6932 52.0429 26.0355 51.3799 26.3644 50.7043C26.7058 50.0153 27.0016 49.3279 27.252 48.6419C27.5148 47.9425 27.7189 47.2386 27.8643 46.5302C28.0092 45.8087 28.0753 45.0704 28.0627 44.3152C27.918 43.8902 27.7636 43.5631 27.5995 43.3342C27.4479 43.0918 27.2301 43.0079 26.946 43.0827C26.6615 43.1444 26.2788 43.3853 25.798 43.8055C25.3172 44.2256 24.6682 44.8729 23.851 45.7473C23.7313 45.6732 23.6113 45.5926 23.4911 45.5055C23.3834 45.4049 23.3274 45.2895 23.323 45.1594C23.3225 45.1464 23.3219 45.1268 23.321 45.1008C23.3327 45.0613 23.3383 45.0351 23.3378 45.0221C23.5758 44.7404 23.845 44.4187 24.1454 44.0567C24.4588 43.6944 24.7989 43.3507 25.1657 43.0256C25.5325 42.7005 25.9143 42.4336 26.3111 42.2247C26.7204 42.0024 27.1594 41.8834 27.6278 41.8675C28.0904 42.0604 28.4272 42.3877 28.6383 42.8496C28.849 43.2985 28.9647 43.8287 28.9854 44.4403C29.0188 45.0385 28.9756 45.6849 28.8558 46.3794C28.7356 47.061 28.5634 47.7442 28.3391 48.4293C28.1278 49.1139 27.8829 49.7671 27.6044 50.3888C27.3389 51.0101 27.0767 51.5401 26.818 51.9788L31.9957 50.2209C32.0088 50.2204 32.0413 50.2193 32.0933 50.2176C32.158 50.2024 32.2098 50.1941 32.2488 50.1928C32.3139 50.1906 32.3922 50.1944 32.4838 50.2044C32.5753 50.2143 32.654 50.2312 32.72 50.255C32.7989 50.2784 32.8653 50.3152 32.9192 50.3655C32.986 50.4154 33.0207 50.4794 33.0234 50.5574C32.5651 50.8726 32.0269 51.1383 31.4089 51.3546C30.8039 51.5705 30.1726 51.7807 29.5151 51.9854C28.8702 52.1765 28.2383 52.3672 27.6194 52.5575C27.0005 52.7478 26.4477 52.9684 25.9612 53.2194C25.792 53.2251 25.6482 53.2104 25.5297 53.1753C25.4109 53.1272 25.3468 52.9666 25.3375 52.6933ZM33.4031 47.9259C33.4022 47.8999 33.4058 47.8151 33.414 47.6715C33.4217 47.5149 33.4424 47.3579 33.4762 47.2004C33.5095 47.0299 33.5697 46.8845 33.6568 46.7643C33.7569 46.6437 33.8925 46.6066 34.0634 46.6529C34.6113 45.9048 35.0945 45.1719 35.5131 44.4542C35.9443 43.7231 36.3496 42.9994 36.7292 42.283C37.1083 41.5536 37.4742 40.8182 37.8269 40.0767C38.1921 39.3217 38.5827 38.5464 38.9986 37.7506C39.0588 37.6053 39.1276 37.5183 39.2047 37.4896C39.2819 37.461 39.3791 37.4446 39.4962 37.4407C39.5743 37.438 39.6789 37.4475 39.8099 37.4692C39.9409 37.4908 40.0088 37.5732 40.0137 37.7163L40.2674 45.1925C40.7099 45.1775 41.1376 45.111 41.5505 44.9928C41.9634 44.8746 42.391 44.808 42.8335 44.7931C42.9634 45.1665 42.959 45.4207 42.8203 45.5557C42.6816 45.6907 42.4697 45.7825 42.1847 45.8312C41.9128 45.8795 41.6016 45.9226 41.2511 45.9605C40.9002 45.9854 40.5835 46.0612 40.3012 46.188L40.5132 52.4344C40.5154 52.4995 40.4723 52.5726 40.3839 52.6538C40.308 52.7215 40.2124 52.7833 40.097 52.8393C39.9943 52.8819 39.885 52.9247 39.7692 52.9677C39.666 52.9972 39.5818 53.0131 39.5167 53.0153L39.2921 46.398L33.4031 47.9259ZM39.0914 40.4834C38.8206 40.9486 38.5113 41.4346 38.1638 41.9414C37.8292 42.4478 37.4948 42.9607 37.1607 43.4801C36.8396 43.999 36.5317 44.524 36.237 45.0551C35.9549 45.5728 35.7314 46.0884 35.5665 46.6021L35.8007 46.5942C36.0588 46.5203 36.3812 46.4247 36.7681 46.3074C37.1675 46.1767 37.5542 46.0529 37.928 45.936C38.3014 45.8061 38.617 45.6978 38.8746 45.6109L39.261 45.4806L39.0914 40.4834ZM53.4246 52.2521C53.2587 51.2024 53.1395 50.1837 53.0669 49.196C52.9938 48.1953 52.9409 47.2135 52.9083 46.2505C52.8881 45.274 52.8745 44.2974 52.8674 43.3205C52.8603 42.3436 52.8259 41.3286 52.7641 40.2754C52.7628 40.2363 52.7935 40.1832 52.8564 40.1159C52.9192 40.0487 52.9702 40.0144 53.0092 40.013C53.0483 40.0117 53.134 40.0414 53.2663 40.1021C53.3986 40.1627 53.485 40.2119 53.5254 40.2496C53.5342 40.5099 53.5551 40.9326 53.5879 41.5178C53.6334 42.0895 53.6685 42.7397 53.6932 43.4685C53.7306 44.1838 53.7694 44.9446 53.8098 45.751C53.8628 46.5439 53.9081 47.3045 53.9459 48.0329C53.9962 48.7477 54.0376 49.3912 54.07 49.9634C54.1025 50.5355 54.1233 50.9582 54.1326 51.2315C54.1335 51.2575 54.1366 51.3486 54.1419 51.5048C54.1472 51.6609 54.1509 51.7715 54.1532 51.8366C54.1562 51.9277 54.1591 52.0123 54.1618 52.0904C54.1774 52.168 54.1734 52.2398 54.1495 52.3058C54.1253 52.3587 54.0748 52.406 53.998 52.4477C53.9338 52.4759 53.8302 52.4924 53.687 52.4973C53.648 52.4986 53.5948 52.4678 53.5275 52.4049C53.4603 52.3421 53.426 52.2911 53.4246 52.2521ZM57.8868 51.8668C57.8775 51.5935 57.9398 51.3178 58.0737 51.0397C58.2206 50.7611 58.3998 50.4749 58.6113 50.1812C58.8358 49.887 59.0729 49.5793 59.3226 49.2582C59.5852 48.9366 59.8212 48.5964 60.0305 48.2376C60.2398 47.8788 60.4157 47.495 60.5582 47.0863C60.7007 46.6776 60.7637 46.2325 60.7474 45.751C60.6995 44.7234 60.2505 44.3542 59.4005 44.6435C58.5634 44.9324 57.3993 45.9489 55.9081 47.6929C55.8426 47.6821 55.7834 47.6646 55.7305 47.6403C55.6771 47.603 55.6289 47.5265 55.5859 47.4107C55.5424 47.2819 55.497 47.0945 55.4495 46.8486C55.4021 46.6026 55.3644 46.2587 55.3363 45.8167C55.3213 45.3742 55.3091 44.8209 55.2995 44.1568C55.29 43.4927 55.2947 42.6717 55.3137 41.694C55.0746 41.5587 54.9127 41.3948 54.828 41.2023C54.7428 40.9967 54.7097 40.7894 54.7287 40.5803C54.7472 40.3582 54.8052 40.1478 54.9027 39.949C54.9997 39.7373 55.1111 39.5642 55.2368 39.4297C55.3751 39.2817 55.5152 39.1857 55.657 39.1419C55.8114 39.0845 55.9424 39.1062 56.05 39.2067C56.1672 39.2028 56.2661 39.2385 56.3468 39.314C56.4401 39.376 56.5078 39.4518 56.55 39.5416C56.6051 39.6309 56.6412 39.7339 56.6582 39.8506C56.6877 39.9539 56.7171 40.0506 56.7462 40.1408L62.6878 38.4352C62.7009 38.4348 62.7399 38.4334 62.805 38.4313C62.8826 38.4156 62.9409 38.4071 62.98 38.4058C63.0971 38.4018 63.2086 38.4241 63.3145 38.4727C63.4203 38.5212 63.4757 38.617 63.4806 38.7602C63.485 38.8903 63.4629 39.0083 63.4144 39.1142C63.3785 39.2066 63.3169 39.3129 63.2298 39.4331C62.5756 39.351 61.9449 39.3853 61.3377 39.5361C60.743 39.6735 60.1365 39.8438 59.518 40.0471C58.7443 40.2817 58.1458 40.4974 57.7225 40.6941C57.2988 40.8778 56.9812 41.1165 56.7697 41.4103C56.5578 41.691 56.4337 42.0665 56.3976 42.5367C56.361 42.994 56.3561 43.6195 56.3831 44.4133L56.395 44.7647C56.4003 44.9208 56.4061 45.09 56.4122 45.2722C56.4314 45.4539 56.4441 45.6359 56.4503 45.8181L56.4622 46.1694C56.7375 45.8344 57.0002 45.5129 57.2503 45.2048C57.513 44.8832 57.7835 44.6005 58.0618 44.3566C58.3532 44.1122 58.6656 43.9127 58.9991 43.7582C59.3452 43.5901 59.7394 43.4986 60.1819 43.4837C60.4552 43.4744 60.6851 43.5318 60.8717 43.6558C61.0713 43.7793 61.2265 43.9369 61.3372 44.1286C61.461 44.3199 61.5531 44.5382 61.6135 44.7837C61.674 45.0292 61.7079 45.2626 61.7154 45.4838C61.738 46.1475 61.6492 46.7954 61.4492 47.4275C61.2622 48.0592 60.9962 48.6675 60.6513 49.2524C60.3193 49.8368 59.9342 50.3905 59.496 50.9134C59.0708 51.4359 58.631 51.9133 58.1766 52.3455C58.0317 52.2983 57.9449 52.2361 57.9163 52.1589C57.9001 52.0683 57.8903 51.9709 57.8868 51.8668ZM64.4441 48.1471C64.4423 48.095 64.4717 48.0028 64.5324 47.8705C64.593 47.7381 64.6425 47.6583 64.6806 47.631C65.2519 47.5726 65.8203 47.4296 66.3858 47.202C66.9643 46.974 67.5359 46.7332 68.1006 46.4796C68.6648 46.213 69.2168 45.9729 69.7568 45.7592C70.3093 45.5321 70.8458 45.4097 71.3663 45.3921C71.4314 45.3899 71.4845 45.4207 71.5258 45.4844C71.567 45.5482 71.5957 45.6254 71.6118 45.716C71.6405 45.7932 71.6562 45.8709 71.6588 45.949L71.6635 46.0856C71.6652 46.1377 71.6609 46.2029 71.6506 46.2815C71.6398 46.347 71.6346 46.3862 71.635 46.3992L65.9356 48.3312C65.91 48.345 65.8258 48.3609 65.6831 48.3788C65.553 48.3832 65.4489 48.3867 65.3708 48.3893L65.2153 48.4141C65.1242 48.4172 65.0199 48.4142 64.9023 48.4052C64.7848 48.3961 64.6798 48.3736 64.5873 48.3376C64.4949 48.3017 64.4472 48.2381 64.4441 48.1471ZM73.218 51.5831C73.0521 50.5334 72.9329 49.5147 72.8602 48.527C72.7872 47.5263 72.7343 46.5445 72.7016 45.5815C72.6815 44.6051 72.6679 43.6284 72.6608 42.6515C72.6537 41.6746 72.6193 40.6596 72.5575 39.6064C72.5561 39.5674 72.5869 39.5142 72.6498 39.4469C72.7126 39.3797 72.7636 39.3454 72.8026 39.3441C72.8417 39.3427 72.9273 39.3724 73.0597 39.4331C73.192 39.4938 73.2784 39.5429 73.3188 39.5807C73.3276 39.8409 73.3484 40.2636 73.3813 40.8488C73.4268 41.4205 73.4619 42.0707 73.4866 42.7995C73.5239 43.5148 73.5628 44.2756 73.6032 45.082C73.6562 45.8749 73.7015 46.6356 73.7393 47.3639C73.7896 48.0787 73.831 48.7222 73.8634 49.2944C73.8959 49.8665 73.9167 50.2892 73.926 50.5625C73.9269 50.5885 73.93 50.6796 73.9353 50.8358C73.9406 50.992 73.9443 51.1026 73.9465 51.1676C73.9496 51.2587 73.9525 51.3433 73.9552 51.4214C73.9708 51.499 73.9667 51.5708 73.9429 51.6368C73.9187 51.6897 73.8682 51.737 73.7914 51.7787C73.7272 51.8069 73.6235 51.8235 73.4804 51.8283C73.4414 51.8296 73.3882 51.7988 73.3209 51.736C73.2537 51.6731 73.2194 51.6221 73.218 51.5831ZM76.144 50.2726C76.1312 49.8952 76.1646 49.5358 76.2442 49.1944C76.3368 48.8525 76.4494 48.523 76.582 48.2058L76.9594 47.2355C77.0911 46.8923 77.1965 46.5435 77.2757 46.1891C77.0613 46.0139 76.8065 45.801 76.5114 45.5505C76.2162 45.2999 75.9335 45.0293 75.663 44.7388C75.3926 44.4483 75.1606 44.1369 74.9669 43.8048C74.7862 43.4721 74.6899 43.1301 74.678 42.7788C74.5611 42.4049 74.5474 42.0015 74.6369 41.5685C74.7395 41.1351 74.901 40.7128 75.1216 40.3014C75.3421 39.8901 75.6158 39.5095 75.9427 39.1598C76.2691 38.797 76.6108 38.4988 76.9676 38.2653C77.3241 38.0187 77.6768 37.857 78.026 37.78C78.3877 37.6896 78.7139 37.7046 79.0047 37.8251C79.3084 37.9451 79.558 38.1973 79.7534 38.5815C79.9488 38.9657 80.0648 39.5025 80.1012 40.1918C80.1167 40.6472 80.0677 41.1244 79.9544 41.6233C79.8536 42.1088 79.7138 42.5955 79.5349 43.0836C79.3691 43.5713 79.1898 44.0464 78.997 44.5089C78.8042 44.9714 78.6362 45.394 78.4928 45.7766C78.503 46.0759 78.604 46.3656 78.7959 46.6458C79.0009 46.9255 79.2127 47.218 79.4315 47.5232C79.6629 47.8151 79.8752 48.1206 80.0685 48.4398C80.2747 48.7585 80.384 49.1 80.3964 49.4644C80.4096 49.8548 80.3428 50.1893 80.1959 50.4679C80.049 50.7464 79.8483 50.9747 79.5938 51.1527C79.3393 51.3306 79.0442 51.4644 78.7085 51.5539C78.3858 51.643 78.0488 51.6934 77.6974 51.7053C77.2029 51.722 76.8213 51.6111 76.5527 51.3727C76.2966 51.1208 76.1603 50.7541 76.144 50.2726ZM75.6206 42.3365C75.6325 42.6879 75.6754 42.9926 75.7493 43.2507C75.8362 43.5083 75.955 43.7453 76.1057 43.9617C76.2559 44.1651 76.4452 44.3671 76.6734 44.5679C76.9143 44.7551 77.1884 44.9608 77.4956 45.185C77.8099 44.8486 78.0958 44.4416 78.3531 43.9639C78.6101 43.4732 78.8213 42.9775 78.9867 42.4768C79.1516 41.9631 79.2782 41.4703 79.3664 40.9983C79.4546 40.5263 79.493 40.1211 79.4815 39.7828C79.1116 40.0168 78.7452 40.1594 78.3821 40.2108C78.0321 40.2617 77.7644 40.2447 77.5791 40.1597C77.4064 40.0614 77.3556 39.9067 77.4266 39.6959C77.4972 39.472 77.7816 39.2149 78.2798 38.9244L77.538 38.9495C77.2387 38.9596 76.9634 39.0992 76.7119 39.3683C76.4731 39.6239 76.2687 39.937 76.0989 40.3075C75.9417 40.6646 75.8174 41.0336 75.7261 41.4145C75.6478 41.7949 75.6126 42.1023 75.6206 42.3365ZM76.9046 50.2273C77.0037 50.4585 77.2046 50.6211 77.5075 50.7151C77.8229 50.7956 78.1424 50.8043 78.4659 50.7413C78.8021 50.6648 79.0905 50.5248 79.3311 50.3212C79.5713 50.1046 79.6789 49.8209 79.654 49.47C79.646 49.2357 79.5988 48.9963 79.5123 48.7517C79.4258 48.5071 79.3071 48.2701 79.156 48.0407C79.0049 47.8113 78.8349 47.602 78.6461 47.413C78.4568 47.2109 78.2624 47.0481 78.0628 46.9246C77.846 47.0622 77.6639 47.2638 77.5166 47.5293C77.3693 47.7949 77.2426 48.0923 77.1365 48.4216C77.0434 48.7505 76.9764 49.0784 76.9354 49.4055C76.9069 49.7192 76.8967 49.9931 76.9046 50.2273Z" fill="black"/>
<path d="M85.5171 36.6099C85.5142 36.5254 85.5482 36.4721 85.6191 36.4502C85.6963 36.4215 85.7674 36.4061 85.8325 36.4039C85.9106 36.4012 85.9732 36.4219 86.0203 36.4659C86.0739 36.5097 86.115 36.5702 86.1437 36.6474L88.5596 41.3243L89.8503 35.0174C89.8618 34.9714 89.8835 34.9413 89.9156 34.9272C89.9475 34.9066 89.9895 34.8954 90.0415 34.8936C90.1001 34.8917 90.1693 34.9154 90.2491 34.9648C90.3288 35.0077 90.3632 35.0619 90.3524 35.1274L89.0825 42.0493C89.0338 42.1486 88.9604 42.1934 88.8623 42.1837C88.7643 42.174 88.6655 42.1415 88.5659 42.0863C88.4661 42.0245 88.3693 41.9561 88.2756 41.8811C88.1883 41.8059 88.1213 41.7495 88.0744 41.712L85.5288 36.6682C85.5221 36.6619 85.5185 36.6522 85.518 36.6392L85.5171 36.6099ZM91.0939 34.8092C91.0922 34.7572 91.1072 34.7208 91.1391 34.7002C91.1773 34.6729 91.2191 34.6584 91.2647 34.6569C91.3165 34.6486 91.3685 34.6468 91.4208 34.6516C91.4796 34.6561 91.5285 34.6577 91.5675 34.6564C91.6027 34.7334 91.6341 34.8887 91.6615 35.1222C91.6953 35.3491 91.7276 35.6281 91.7583 35.9593C91.7954 36.2838 91.8239 36.6443 91.8439 37.041C91.8704 37.4375 91.8938 37.8406 91.9143 38.2503C91.941 38.6532 91.961 39.0499 91.9742 39.4403C91.994 39.8305 92.0094 40.1883 92.0204 40.5136C92.0377 40.8322 92.0503 41.1054 92.058 41.3331L92.0729 41.7723C92.0708 41.9027 92.0442 41.9817 91.993 42.0095C91.9481 42.0306 91.837 42.018 91.6595 41.9719C91.6398 41.9661 91.6202 41.869 91.6008 41.6808C91.5814 41.4925 91.5632 41.2456 91.5463 40.94C91.5292 40.6279 91.5107 40.2735 91.4907 39.8768C91.4705 39.4736 91.45 39.0607 91.4291 38.638C91.4082 38.2152 91.3841 37.7926 91.3567 37.3702C91.3359 36.9474 91.3131 36.5639 91.2884 36.2195C91.2634 35.8685 91.2338 35.5699 91.1993 35.3235C91.1712 35.0704 91.1361 34.899 91.0939 34.8092ZM92.6263 34.7574C92.6245 34.7054 92.6396 34.669 92.6714 34.6484C92.7096 34.6211 92.7514 34.6066 92.797 34.6051C92.8488 34.5968 92.9009 34.5951 92.9531 34.5998C93.0119 34.6043 93.0608 34.6059 93.0999 34.6046C93.1351 34.6816 93.1664 34.8369 93.1939 35.0705C93.2276 35.2973 93.2599 35.5763 93.2907 35.9075C93.3277 36.232 93.3563 36.5925 93.3762 36.9892C93.4027 37.3857 93.4262 37.7888 93.4466 38.1985C93.4733 38.6014 93.4933 38.9981 93.5065 39.3885C93.5263 39.7787 93.5417 40.1365 93.5527 40.4618C93.5701 40.7804 93.5826 41.0536 93.5903 41.2813L93.6052 41.7205C93.6031 41.8509 93.5765 41.9299 93.5253 41.9577C93.4805 41.9788 93.3693 41.9663 93.1918 41.9201C93.1721 41.9143 93.1525 41.8172 93.1331 41.629C93.1137 41.4407 93.0955 41.1938 93.0786 40.8882C93.0615 40.5761 93.043 40.2217 93.023 39.825C93.0028 39.4218 92.9823 39.0089 92.9614 38.5862C92.9406 38.1635 92.9164 37.7409 92.8891 37.3184C92.8682 36.8956 92.8454 36.5121 92.8207 36.1677C92.7958 35.8168 92.7661 35.5181 92.7317 35.2717C92.7035 35.0186 92.6684 34.8472 92.6263 34.7574Z" fill="black"/>
</g>
<defs>
<clipPath id="clip0_101_2">
<rect width="105" height="61" fill="white"/>
</clipPath>
</defs>
</svg>
