<svg width="90" height="32" viewBox="0 0 90 32" fill="none" xmlns="http://www.w3.org/2000/svg">
<path fill-rule="evenodd" clip-rule="evenodd" d="M47.7802 9.19519C47.6274 9.09547 47.4762 8.99092 47.3267 8.88477C46.6383 10.5254 46.1348 12.4233 46.5594 14.4548C46.7203 14.5336 46.8843 14.5191 47.0532 14.4548C46.9696 12.6163 47.0918 10.7361 47.7802 9.19519Z" fill="black"/>
<path fill-rule="evenodd" clip-rule="evenodd" d="M46.4933 16.3652C46.593 16.2896 46.8327 16.354 46.9871 16.3314C48.0229 16.7368 47.0145 18.1988 46.1958 17.4187C45.9931 17.0231 46.059 16.5116 46.4933 16.3652Z" fill="black"/>
<path fill-rule="evenodd" clip-rule="evenodd" d="M53.4108 29.163C53.4156 29.1002 53.422 29.0343 53.4301 28.97C53.4397 28.8525 53.4478 28.7351 53.4622 28.6177C52.4698 28.5083 51.4806 28.3957 50.7456 28.029C48.8557 26.6136 47.9903 24.0948 47.4177 21.4071C47.2344 20.5466 47.2118 19.6603 46.858 18.9365C46.6827 18.9156 46.5636 18.951 46.4961 19.0347C46.6087 21.2366 47.2778 23.6669 48.1431 25.5585C49.0294 27.4966 50.321 29.0536 52.9202 29.216C53.0762 29.2048 53.2338 29.2193 53.414 29.2225C53.4092 29.2016 53.4075 29.1823 53.4108 29.163Z" fill="black"/>
<path fill-rule="evenodd" clip-rule="evenodd" d="M58.3907 29.1795C57.1297 30.8748 56.0697 31.2737 53.8742 31.6533C52.1081 31.8961 50.1458 31.3268 50.1507 31.3895C46.5992 30.4743 44.7511 27.3861 43.8472 23.9167C42.9063 21.6022 42.998 18.8807 42.2066 18.0877C41.4136 17.2948 40.3955 16.5597 40.3955 16.5597C40.3955 16.5597 41.9798 15.7105 42.6586 14.8628C43.3808 13.3943 43.7652 11.3403 44.2992 9.60002C45.3977 6.91876 47.3118 4.89695 49.6907 3.60538C49.6907 3.60538 48.621 4.10882 50.1844 3.37537C51.7478 2.64193 53.9417 2.37493 55.3909 3.31908C55.0178 2.2736 55.1561 2.44731 54.7122 1.50798C56.7501 1.39539 58.2781 1.1123 60.1455 1.1123C60.3851 2.161 60.443 3.69867 60.4286 4.7908C60.4012 6.82386 59.5664 8.78776 58.3907 9.77051C57.4835 9.70135 55.4312 9.66114 55.3909 9.65792C55.3829 9.49708 55.325 9.43917 54.9953 8.3004C54.6382 7.65864 54.6028 7.3852 53.9208 7.16806C52.6759 6.77239 51.1543 7.13429 50.4691 8.46929C48.3122 13.0083 52.1033 15.0526 52.8046 15.3614C53.2308 15.5496 54.4902 15.6912 54.5433 15.8826C53.8774 16.4021 52.5054 17.4669 51.5436 18.7681C50.8085 20.806 51.3811 22.1088 52.0534 23.8041C52.5231 24.9911 53.3804 25.3402 54.3744 25.7841C55.3363 26.0205 55.9925 26.0366 56.6938 25.6715C57.8824 24.5955 58.8443 21.8048 58.9569 21.7099C59.6227 21.726 61.8392 21.8933 62.7479 21.8804C63.2417 22.9902 63.491 24.9252 63.5409 26.294C63.6101 28.1823 63.0519 30.0738 62.3523 31.4442C61.191 31.3573 57.8245 30.9922 57.8245 30.9922C57.8245 30.9922 58.1205 29.81 58.3907 29.1795ZM56.1791 2.62745C56.5281 3.58608 56.705 5.25724 56.705 5.25724L56.4863 5.38431C56.4863 5.38431 54.799 3.72119 51.9602 4.24232C49.4462 4.6766 47.6351 6.93484 46.4915 8.59153C45.2707 10.4943 45.5409 12.9391 44.0708 15.429C43.6301 15.9324 42.9561 16.3924 42.8677 16.4986C43.659 17.4363 44.3876 18.4448 44.6804 19.6624C45.068 21.2757 46.0154 25.2469 46.0315 25.3627C46.9016 27.711 48.88 29.2776 50.6107 29.876C52.6582 30.5853 55.8188 29.8969 56.6713 29.2245C58.4454 27.8236 59.6051 25.6924 59.6051 25.6924C59.6051 25.6924 59.7723 26.1347 59.8029 26.384C59.9686 27.7512 59.8447 29.0814 59.4072 29.9419C59.9332 30.0497 60.4607 30.069 61.1572 30.1671C61.9855 28.5972 62.4954 27.1271 62.0097 25.0667C61.8472 24.5488 61.5818 23.4519 61.5818 23.4519L59.8029 23.32C59.8029 23.32 58.7735 25.9144 57.2664 27.1754C56.8627 27.4408 56.3094 27.5582 55.8172 27.7351C54.4227 27.949 53.0973 27.2992 52.1934 26.5159C50.4321 24.9911 49.2869 22.2793 49.6569 19.4324C49.8467 17.9751 50.7152 16.8525 51.5677 16.1383C47.5466 15.5512 47.7573 9.41022 49.7888 6.88015C51.4471 4.60261 56.6857 4.73289 56.7581 8.42104C57.1458 8.45803 57.4063 8.40817 57.6605 8.46285C58.2138 7.8999 58.3263 7.67633 58.6512 7.14394C59.1322 5.54354 59.3155 4.45785 59.145 2.53094C58.1993 2.55025 57.5382 2.47947 56.1791 2.62745Z" fill="black"/>
<path fill-rule="evenodd" clip-rule="evenodd" d="M27.5171 6.82394C27.8983 7.15689 27.7889 8.10265 27.1873 7.84208C26.6019 7.62172 26.6549 6.42505 27.5171 6.82394Z" fill="black"/>
<path fill-rule="evenodd" clip-rule="evenodd" d="M27.4075 8.94218C27.615 8.93092 27.5989 9.04672 27.7372 9.05155C27.9463 10.1292 27.956 11.2728 28.067 12.3263C28.112 12.759 28.1458 13.0839 28.0943 13.6469C27.8933 13.6726 27.8209 13.6999 27.6938 13.6517C27.4751 12.3649 27.5458 10.5394 27.2676 9.18827C27.3255 9.1175 27.3239 8.98721 27.4075 8.94218Z" fill="black"/>
<path fill-rule="evenodd" clip-rule="evenodd" d="M27.3532 14.8052C27.6781 14.506 28.2716 14.7923 28.3166 15.1349C28.4292 15.997 26.9495 15.8555 27.3532 14.8052Z" fill="black"/>
<path fill-rule="evenodd" clip-rule="evenodd" d="M28.1511 17.0352C28.3811 19.6537 28.3522 22.5457 28.5372 25.0436C28.4037 25.1401 28.2203 25.132 28.0691 25.0436C27.9839 23.9112 27.8214 22.2674 27.9034 20.9163C27.8037 19.7084 27.7345 18.1353 27.7651 16.9258C27.9356 16.9033 28.0048 16.9467 28.1511 17.0352Z" fill="black"/>
<path fill-rule="evenodd" clip-rule="evenodd" d="M28.8115 26.5015C28.678 26.7412 28.6265 26.9165 28.1777 26.8586C28.0073 26.7155 27.8158 26.4855 27.93 26.1429C28.2501 25.8147 28.7632 26.0866 28.8115 26.5015Z" fill="black"/>
<path fill-rule="evenodd" clip-rule="evenodd" d="M40.8574 11.2958C39.7122 11.2862 38.197 11.3666 36.5194 11.3666C36.8797 10.728 36.6915 9.36892 35.8986 8.80114C35.1635 8.27679 32.9471 8.71107 30.5923 8.97164C30.7709 10.794 30.9076 13.308 30.9076 13.308C30.9076 13.308 31.8533 13.4543 32.2748 13.2549C32.6962 13.0571 32.5884 12.6646 32.5385 12.3333C32.3809 11.2846 31.8469 10.1104 31.8469 10.1104L35.5511 9.79515C35.5511 9.79515 37.5263 12.2014 36.1559 14.5175C38.0506 15.4536 37.3687 18.8297 37.3687 18.8297L32.9857 19.0919C32.9857 19.0919 33.2093 18.122 33.2479 17.6298C33.3669 16.1034 31.0025 16.7388 31.0025 16.7388C31.0025 16.7388 30.8239 21.6879 30.8979 24.2132C30.9253 25.1364 30.7194 25.3053 31.218 25.8988C31.7681 26.5551 33.4698 26.502 34.4124 26.2655C34.5861 26.8607 34.7083 29.254 34.7276 30.0631C32.0769 32.3953 28.9228 30.1226 28.9228 30.1226C28.9228 30.1226 28.5544 30.745 28.2617 30.9477C28.0027 30.7209 27.9641 30.2738 27.7937 29.9569C26.6018 30.8431 23.816 30.938 22.3314 30.6276C22.1464 29.587 21.9245 26.1658 21.9888 26.0838C22.6402 26.3186 24.3613 26.4891 24.839 25.8972C25.6544 24.2984 25.2684 22.6401 25.2282 20.9368C25.2813 20.0698 25.0464 19.0227 25.0899 18.1848C24.6202 14.5352 24.5945 8.54058 24.2117 8.17224C23.8289 7.80391 22.4456 8.48589 21.7604 8.51484C21.7122 7.41145 21.5095 3.18127 21.532 3.04294C23.0665 2.3867 26.6452 0.95841 27.6875 3.04294C28.3244 3.58016 28.4805 2.74217 28.8858 2.18886C29.2042 2.70035 29.8798 3.75226 30.5119 3.91954C32.2056 4.36669 33.4537 4.43102 35.0397 3.81499C35.2713 3.66058 35.5897 3.43862 35.6686 3.13302C35.7731 2.60867 35.3163 1.33478 35.3163 1.33478L40.4826 0.992188C40.4826 0.992188 42.4433 4.32969 40.2815 6.3708C40.2864 6.54129 42.0154 8.35721 40.8574 11.2958ZM37.01 2.79524C37.3011 3.47561 36.9794 4.19619 36.5709 4.52914C35.72 5.08566 34.9737 5.45238 33.7963 5.55532C32.2764 5.68721 31.4271 6.03624 29.6948 5.3221C29.5533 5.17895 28.9566 4.41655 28.8086 4.28144C28.6638 4.97789 27.6762 5.43951 26.8543 4.03374C26.338 3.15232 23.8916 3.75548 23.0005 4.36347C22.8734 5.00041 23.06 5.99925 23.0279 6.70213C23.6005 6.59115 24.5317 6.33059 25.1478 6.6201C25.3327 6.79221 25.4405 7.04312 25.5611 7.28117C25.5708 7.53852 25.7654 8.65317 25.7815 9.01506C25.9954 13.7519 26.4587 19.2431 26.7996 23.5199C26.8704 24.411 26.8575 25.3166 26.687 25.9326C26.5455 26.4425 26.4635 26.4553 26.1933 26.8221C25.6834 27.5185 24.3709 27.6649 23.7436 27.6198C23.8047 28.1442 24.0187 29.299 24.0187 29.299C24.0187 29.299 26.0871 29.4325 27.2934 28.8036C27.5025 28.6283 27.8532 28.3806 27.8532 28.3806C27.8532 28.3806 27.9513 28.2793 28.1813 28.1201C28.1845 28.3549 28.2826 28.979 28.4209 29.1623C28.548 28.9371 28.6928 28.3002 28.696 28.03C28.9726 28.297 28.9726 28.3758 29.1447 28.4707C30.0921 29.5467 32.0174 30.1805 33.2093 29.1623C33.2157 28.8004 33.2157 28.3388 33.1546 27.9238C32.7637 27.964 32.3487 28.0043 31.9434 28.0059C29.4037 27.644 29.4326 24.9563 29.4101 22.4375C29.3973 21.0092 29.4986 19.5712 29.5115 18.2459C29.5195 17.5044 29.5115 15.6338 29.5115 15.6338C29.5115 15.6338 32.5948 15.2799 33.732 15.5662C34.4478 15.9362 34.8499 17.0379 34.5024 17.9885C35.1008 17.9869 35.5093 17.8952 35.9886 17.8229C36.1704 16.7195 35.8407 15.6756 35.1908 15.0435C35.0316 14.8891 34.7775 14.5754 34.7775 14.5754C34.7775 14.5754 35.9082 12.4153 34.7228 11.1076C34.9641 11.1559 33.539 11.3007 33.539 11.3007C33.539 11.3007 34.5169 13.0603 33.9797 13.805C33.8156 14.0318 33.7577 14.2505 33.4296 14.3551C32.0801 14.4081 30.3864 14.6703 29.5115 14.4886C29.4471 14.4146 29.2091 9.2692 29.1029 7.41628C29.1994 7.32942 35.1522 6.8099 36.6481 7.39215C37.4909 7.72027 37.8625 8.66764 37.7772 9.67613C37.7338 9.77907 37.6952 9.88845 37.6678 10.0059C38.3241 10.0541 38.7905 10.038 39.3744 10.0332C39.9261 8.9459 39.6253 7.3825 38.7954 6.64745C38.6651 6.53325 38.4109 6.34506 38.4109 6.34506C38.4109 6.34506 40.4633 4.84761 39.1267 2.71161C38.4238 2.67622 37.7949 2.79846 37.01 2.79524Z" fill="black"/>
<path fill-rule="evenodd" clip-rule="evenodd" d="M4.6416 13.5009C4.66412 10.6089 4.85713 6.95453 6.89341 5.39595C7.86491 4.84748 8.63374 4.21375 9.98161 4.12368C15.0723 3.78591 16.0518 8.77528 15.9007 13.0875C15.3924 13.5861 15.2991 13.0746 15.3216 12.6436C15.4841 9.47816 14.7297 5.37183 11.4614 4.71559C10.5027 4.52257 10.0057 4.68663 9.08088 4.83461C9.0262 4.87321 8.97312 4.87 8.7592 4.95363C6.88859 5.6726 5.93157 6.92558 5.38148 8.97633C5.26728 9.40096 5.28337 9.98965 5.22064 10.514C5.12092 11.352 5.05014 12.1369 5.02763 12.8221C5.01798 13.1341 5.21581 13.6006 4.6416 13.5009Z" fill="black"/>
<path fill-rule="evenodd" clip-rule="evenodd" d="M12.9707 15.0933C14.8542 16.0037 14.6981 19.5246 14.3893 21.9115C14.1127 24.0475 12.7696 25.8923 10.4117 25.7653C9.41765 25.7122 8.66329 25.1509 8.12768 24.4029C6.95352 22.0385 6.11231 18.7734 7.42801 15.9554C7.69662 15.5791 8.18076 15.148 8.18076 15.148C8.18076 15.148 6.82163 14.7974 6.40183 13.924C5.9386 10.6846 7.32829 6.76805 9.83262 6.55091C13.8055 6.05712 15.0697 11.907 13.9904 14.3936C13.7733 14.6301 13.2489 14.9116 12.9707 15.0933ZM12.7552 13.5331C13.5545 11.4792 13.0575 9.95758 11.5713 8.52929C10.8331 7.80549 10.1366 7.81997 9.31149 8.31376C7.61459 9.49435 7.4827 10.4658 7.75131 13.1021C7.96684 14.0173 9.9034 14.5545 9.9034 14.5545C9.9034 14.5545 8.73406 16.6101 8.50406 17.4062C8.16468 18.8522 8.10034 19.7176 8.55713 21.3871C8.87721 22.55 8.95924 22.8411 9.52541 23.4861C10.8845 25.0334 12.1616 23.9703 12.9144 22.1415C13.2698 20.0875 13.183 17.0829 12.5911 16.1694C11.9992 15.2542 11.4475 15.074 11.1918 14.8778C11.195 14.8794 12.2179 14.2875 12.7552 13.5331Z" fill="black"/>
<path fill-rule="evenodd" clip-rule="evenodd" d="M15.4165 14.7156C15.7237 14.6899 15.9891 14.9569 16.1242 15.1885C16.1467 16.1117 14.3517 15.9959 14.7731 15.0694C14.979 14.944 15.1141 14.7542 15.4165 14.7156Z" fill="black"/>
<path fill-rule="evenodd" clip-rule="evenodd" d="M4.64193 17.0507C4.87998 17.0009 4.89124 17.1569 5.02796 17.1987C5.1695 20.9834 5.17111 26.3314 8.3735 27.9672C9.01366 28.2953 10.1991 28.5913 11.2687 28.4996C12.4782 28.3966 13.2165 27.6342 13.9371 26.9314C14.4518 26.0146 14.87 25.0093 15.256 23.9734C15.4764 22.4422 15.9685 20.5909 15.9637 18.8265C15.9621 18.2555 15.7337 17.4947 16.0924 17.1408C16.3642 17.0974 16.4479 17.2277 16.5749 17.3193C16.6183 20.9641 16.1004 24.7487 14.4196 27.2579C13.5655 28.0605 12.6793 28.8325 11.1384 29.003C9.85809 28.8808 8.90911 28.7907 8.01965 28.3516C4.769 26.407 4.36689 21.3581 4.5776 17.1408C4.57599 17.0893 4.60172 17.0636 4.64193 17.0507Z" fill="black"/>
<path fill-rule="evenodd" clip-rule="evenodd" d="M-0.00976562 15.2411C-0.00976562 15.2411 0.87809 14.6862 1.12901 14.4964C1.43461 14.2632 1.71287 13.7983 1.92518 13.475C2.20505 12.5341 1.81742 6.57323 3.97755 4.12841C4.64505 3.37244 6.36768 2.09374 7.34078 1.67715C8.48438 1.18658 9.79687 1.00804 11.5115 1.22197C11.8975 1.27022 18.1559 2.50067 18.1688 9.12421C18.172 10.6329 18.2846 12.2446 19.0309 13.3367C19.2866 13.8434 20.961 15.1848 20.961 15.1848C20.961 15.1848 19.8142 16.7337 19.6131 16.9846C19.5102 17.131 19.3461 17.4897 19.195 17.6344C17.9613 19.9281 19.1869 21.8968 18.9103 24.1888C18.0835 31.0504 13.0395 31.3705 11.4439 31.541C8.51172 31.8144 6.11998 30.9362 4.60484 29.5465C3.26179 28.3145 2.09728 24.8885 2.09728 21.6957C2.09728 19.7849 1.58902 16.5552 0.844313 15.9568C0.561229 15.7188 -0.00976562 15.2411 -0.00976562 15.2411ZM16.3159 6.96408C15.6467 4.27799 13.1119 2.78215 9.94806 2.97034C8.449 3.0588 6.65881 4.07051 5.86424 4.89242C4.68526 6.11322 4.01454 7.86802 3.64621 9.74346C3.3213 11.3921 3.96307 13.5361 3.06717 15.0384C2.79695 15.233 2.60072 15.4968 2.26295 15.6303C3.76845 16.8833 3.32774 19.7206 3.71054 21.7826C3.87943 23.6323 3.9116 25.2745 4.70777 26.6931C5.18387 27.5392 5.9334 28.1617 6.67007 28.7343C7.42603 29.3213 8.40557 29.8409 9.56525 29.9181C12.8079 30.132 15.4393 28.4978 16.1904 27.3735C16.9415 26.2492 17.2777 24.5169 17.3485 22.9664C17.4112 21.5783 17.408 20.0777 17.4997 18.6027C17.5897 17.1519 18.2283 16.211 18.981 15.2395C17.022 14.6395 17.1217 9.44268 16.3159 6.96408Z" fill="black"/>
<path fill-rule="evenodd" clip-rule="evenodd" d="M4.73782 15.1284C5.1914 15.0898 5.56616 15.5256 5.44553 16.0162C4.51907 16.8172 3.40282 15.1814 4.73782 15.1284Z" fill="black"/>
<path fill-rule="evenodd" clip-rule="evenodd" d="M77.0429 7.69681C77.786 7.34778 78.0385 8.49781 77.2745 8.49621C76.9094 8.47851 76.8289 7.94612 77.0429 7.69681Z" fill="black"/>
<path fill-rule="evenodd" clip-rule="evenodd" d="M83.3077 24.6476C83.3768 24.5962 83.4508 24.5511 83.5232 24.5045C83.2659 23.9447 83.0487 23.2821 82.7898 22.6805C81.8906 18.3474 80.3433 14.4212 79.2126 10.2119C79.0228 10.2376 78.8314 10.2569 78.6416 10.2795C79.7884 14.4646 81.2971 18.3023 82.2139 22.7078C82.3877 23.0022 82.4825 23.4558 82.6756 23.9496C82.7672 24.1828 82.9072 24.5929 83.0761 24.8455C83.1468 24.7683 83.2337 24.7023 83.3077 24.6476Z" fill="black"/>
<path fill-rule="evenodd" clip-rule="evenodd" d="M75.2932 13.0621C75.2321 13.0444 75.1887 13.0122 75.1565 12.9736C74.9635 13.5318 74.7544 14.0754 74.5389 14.5949V14.8153C74.2831 15.2882 74.2252 15.9508 73.9904 16.443C73.68 18.0563 73.3197 19.5875 72.8918 21.0239C72.7535 21.4887 72.3964 22.1224 72.3369 22.6612C72.4334 22.6628 72.5299 22.6612 72.62 22.6484C72.6972 22.6371 72.7728 22.6403 72.8452 22.6548C73.5239 20.9177 73.8907 18.9072 74.4793 16.554C74.7656 15.4088 75.1887 14.2556 75.5924 13.1039C75.4991 13.1039 75.401 13.0927 75.2932 13.0621Z" fill="black"/>
<path fill-rule="evenodd" clip-rule="evenodd" d="M77.6212 11.0361C77.6212 11.0361 79.3068 16.0673 79.873 18.5138C78.5525 18.4896 75.0879 18.5138 75.0879 18.5138L77.0421 11.0908L77.6212 11.0361ZM76.5966 17.6355C77.47 17.5841 77.5504 17.7304 78.5348 17.6355C78.0217 15.4706 78.0989 15.3548 77.5086 13.7608C77.1161 15.3451 76.8716 15.9403 76.5966 17.6355Z" fill="black"/>
<path fill-rule="evenodd" clip-rule="evenodd" d="M71.816 26.4586C71.9334 26.6725 71.8691 27.0409 71.7002 27.1486C70.9475 27.4301 70.9748 26.0581 71.816 26.4586Z" fill="black"/>
<path fill-rule="evenodd" clip-rule="evenodd" d="M84.4951 27.012C84.7219 27.6007 83.9467 27.7728 83.744 27.3707C83.6507 26.8624 84.196 26.7755 84.4951 27.012Z" fill="black"/>
<path fill-rule="evenodd" clip-rule="evenodd" d="M82.9993 1.18573C83.062 2.65906 82.9993 4.83849 82.9446 6.57881C82.8932 6.58686 81.1094 6.62063 80.3583 6.6335C80.4934 7.40555 80.8665 8.09396 81.074 8.89014C83.6121 15.2708 86.6505 26.866 87.3485 26.9979C88.2316 27.1636 88.9988 26.5572 88.9988 26.5572C88.9988 26.5572 89.8561 29.0889 89.9896 29.9687C89.232 30.4979 89.1194 31.4549 87.4579 31.6752C86.6022 31.5916 85.1562 31.4887 84.8844 30.8485C84.7396 31.0415 84.4807 31.4565 84.4807 31.4565C84.4807 31.4565 84.2266 31.0544 84.1333 30.8212C83.4979 31.3696 82.9173 31.6672 81.8445 31.7862C81.0435 31.8763 79.2533 31.7878 79.2533 31.7878L78.9814 27.3292C78.9814 27.3292 80.0623 27.5206 80.5223 27.4386C80.8311 27.3839 81.0644 27.0494 81.0724 26.6682C81.0933 25.6179 80.7443 25.3074 80.2199 23.9773C79.8854 23.1312 79.3112 22.0455 79.3112 22.0455L75.3592 22.1822C75.3592 22.1822 74.2285 24.611 73.9261 26.5845C74.0291 26.8724 74.2446 27.0526 74.5036 27.1909C75.2338 27.3743 76.3967 27.2166 76.3967 27.2166C76.3967 27.2166 76.4096 30.2116 76.2873 31.1798C74.8622 31.7492 72.0459 31.6447 71.5006 30.3434C71.1934 30.5654 70.7495 31.2265 70.7495 31.2265C70.7495 31.2265 70.6111 30.6973 70.46 30.4271C69.6654 31.3487 66.7799 31.7733 65.4545 31.4565C65.2229 30.3081 65.4545 27.0574 65.4545 27.0574C65.4545 27.0574 65.8309 27.2183 67.042 26.9432C68.2532 26.6682 68.451 25.9106 68.9673 25.2914C70.6996 21.5678 73.0351 12.2598 73.3712 11.4765C73.6205 10.5147 74.7094 7.36534 74.8574 6.79917C74.5293 6.60455 74.3395 6.67371 73.9503 6.71714C73.2956 6.82651 71.6984 7.42485 71.6984 7.42485L71.6486 1.85967C71.6486 1.85967 74.4167 -0.19109 77.2234 2.45157C78.0823 0.884954 80.8521 0.683899 82.9993 1.18573ZM79.8162 2.45479C79.3063 2.62206 78.8367 2.82473 78.4008 3.06277C78.1676 3.27991 77.9488 3.47614 77.7655 3.75279C77.5901 4.01658 77.217 4.52484 77.217 4.52484C77.217 4.52484 76.3211 3.35873 75.6005 3.03543C74.8285 2.75556 73.9937 2.7427 73.0881 3.00809C73.056 3.65468 73.1846 4.91087 73.2039 5.65718C74.1658 5.16339 75.4831 5.35962 76.4272 5.73599C76.4256 5.84698 72.4818 18.967 71.5859 22.3769C71.0036 25.1273 69.178 28.5356 66.878 28.4198C66.8699 28.9956 66.8812 29.4765 66.9938 30.2132C68.71 30.5702 70.5741 28.6401 70.5741 28.6401L70.9135 29.581L71.47 28.9168C71.47 28.9168 72.1392 29.8963 72.6828 30.1858C73.4484 30.3258 74.4087 30.6185 75.1373 30.1858C75.1502 29.5666 75.2 29.0551 75.2531 28.4198C74.6789 28.653 74.0612 28.394 73.5771 28.2267C73.4581 28.037 73.2458 27.9356 73.0865 27.7844C72.797 27.4708 72.678 27.0831 72.7118 26.6247C72.8565 24.6528 74.7786 20.6253 74.7915 20.5272C74.8043 20.4291 80.1347 20.4998 80.1347 20.4998C80.1347 20.4998 81.8911 24.5113 82.1275 25.301C82.4154 26.2677 82.5972 27.7603 81.8107 28.3361C81.7045 28.3731 81.6321 28.4407 81.5212 28.4744C81.0676 28.5581 80.651 28.5516 80.1926 28.4744C80.3406 29.2127 80.3502 29.9767 80.5384 30.7086C81.4986 30.7729 82.4782 30.7375 83.1666 30.3499C83.6845 30.0604 84.2056 29.2192 84.2056 29.2192L84.4083 30.0748L85.0147 29.1645C85.0147 29.1645 85.7337 30.3386 86.4301 30.4898C87.408 30.7021 88.2428 30.1231 88.6546 29.4685C88.5339 28.9908 88.4535 28.624 88.3651 28.1447C87.741 28.497 86.8917 28.5533 86.3433 28.1174C86.221 27.9131 86.1036 27.7024 85.9974 27.482C83.469 20.5336 78.9203 6.17992 78.9203 6.17992L78.6919 5.47221C78.6919 5.47221 80.7443 5.14248 81.5485 5.26955C81.5919 4.25463 81.5196 3.32817 81.4906 2.37276C81.0306 2.26982 80.4628 2.41458 79.8162 2.45479Z" fill="black"/>
</svg>
